REM DIRINDEX 1\2,1\3,1\4,1\5
REM DIRNAME cjc004,folder01,folder02,folder03,folder04
TITLE ""
FILE "1Q_t_1440-1449.mp3" MP3
  TRACK 01 AUDIO
    TITLE "3:cjc004_5226"
    INDEX 01 00:00:00
  TRACK 02 AUDIO
    TITLE "0:"
    INDEX 01 00:01:03
  TRACK 03 AUDIO
    TITLE "4:cjc004_5227"
    INDEX 01 00:01:34
  TRACK 04 AUDIO
    TITLE "0:"
    INDEX 01 00:02:40
  TRACK 05 AUDIO
    TITLE "5:cjc004_5228"
    INDEX 01 00:02:67
  TRACK 06 AUDIO
    TITLE "0:"
    INDEX 01 00:06:39
  TRACK 07 AUDIO
    TITLE "3:cjc004_5229"
    INDEX 01 00:07:13
  TRACK 08 AUDIO
    TITLE "0:"
    INDEX 01 00:08:42
  TRACK 09 AUDIO
    TITLE "4:cjc004_5230"
    INDEX 01 00:08:70
  TRACK 10 AUDIO
    TITLE "0:"
    INDEX 01 00:10:02
  TRACK 11 AUDIO
    TITLE "5:cjc004_5231"
    INDEX 01 00:10:29
  TRACK 12 AUDIO
    TITLE "0:"
    INDEX 01 00:15:03
  TRACK 13 AUDIO
    TITLE "3:cjc004_5232"
    INDEX 01 00:15:50
  TRACK 14 AUDIO
    TITLE "0:"
    INDEX 01 00:16:57
  TRACK 15 AUDIO
    TITLE "4:cjc004_5233"
    INDEX 01 00:17:06
  TRACK 16 AUDIO
    TITLE "0:"
    INDEX 01 00:18:27
  TRACK 17 AUDIO
    TITLE "5:cjc004_5234"
    INDEX 01 00:18:54
  TRACK 18 AUDIO
    TITLE "0:"
    INDEX 01 00:23:16
  TRACK 19 AUDIO
    TITLE "3:cjc004_5235"
    INDEX 01 00:23:65
  TRACK 20 AUDIO
    TITLE "0:"
    INDEX 01 00:25:09
  TRACK 21 AUDIO
    TITLE "4:cjc004_5236"
    INDEX 01 00:25:37
  TRACK 22 AUDIO
    TITLE "0:"
    INDEX 01 00:26:62
  TRACK 23 AUDIO
    TITLE "5:cjc004_5237"
    INDEX 01 00:27:16
  TRACK 24 AUDIO
    TITLE "0:"
    INDEX 01 00:31:10
  TRACK 25 AUDIO
    TITLE "3:cjc004_5238"
    INDEX 01 00:31:63
  TRACK 26 AUDIO
    TITLE "0:"
    INDEX 01 00:33:01
  TRACK 27 AUDIO
    TITLE "4:cjc004_5239"
    INDEX 01 00:33:30
  TRACK 28 AUDIO
    TITLE "0:"
    INDEX 01 00:35:41
  TRACK 29 AUDIO
    TITLE "5:cjc004_5240"
    INDEX 01 00:35:68
  TRACK 30 AUDIO
    TITLE "0:"
    INDEX 01 00:40:26
  TRACK 31 AUDIO
    TITLE "3:cjc004_5241"
    INDEX 01 00:41:04
  TRACK 32 AUDIO
    TITLE "0:"
    INDEX 01 00:42:21
  TRACK 33 AUDIO
    TITLE "4:cjc004_5242"
    INDEX 01 00:42:51
  TRACK 34 AUDIO
    TITLE "0:"
    INDEX 01 00:44:30
  TRACK 35 AUDIO
    TITLE "5:cjc004_5243"
    INDEX 01 00:44:58
  TRACK 36 AUDIO
    TITLE "0:"
    INDEX 01 00:49:06
  TRACK 37 AUDIO
    TITLE "3:cjc004_5244"
    INDEX 01 00:49:63
  TRACK 38 AUDIO
    TITLE "0:"
    INDEX 01 00:51:11
  TRACK 39 AUDIO
    TITLE "4:cjc004_5245"
    INDEX 01 00:51:40
  TRACK 40 AUDIO
    TITLE "0:"
    INDEX 01 00:52:65
  TRACK 41 AUDIO
    TITLE "5:cjc004_5246"
    INDEX 01 00:53:13
  TRACK 42 AUDIO
    TITLE "0:"
    INDEX 01 00:57:70
  TRACK 43 AUDIO
    TITLE "3:cjc004_5247"
    INDEX 01 00:58:46
  TRACK 44 AUDIO
    TITLE "0:"
    INDEX 01 00:59:65
  TRACK 45 AUDIO
    TITLE "4:cjc004_5248"
    INDEX 01 01:00:19
  TRACK 46 AUDIO
    TITLE "0:"
    INDEX 01 01:01:44
  TRACK 47 AUDIO
    TITLE "5:cjc004_5249"
    INDEX 01 01:01:70
  TRACK 48 AUDIO
    TITLE "0:"
    INDEX 01 01:06:69
  TRACK 49 AUDIO
    TITLE "3:cjc004_5250"
    INDEX 01 01:07:49
  TRACK 50 AUDIO
    TITLE "0:"
    INDEX 01 01:09:09
  TRACK 51 AUDIO
    TITLE "4:cjc004_5251"
    INDEX 01 01:09:38
  TRACK 52 AUDIO
    TITLE "0:"
    INDEX 01 01:11:03
  TRACK 53 AUDIO
    TITLE "5:cjc004_5252"
    INDEX 01 01:11:21
  TRACK 54 AUDIO
    TITLE "0:"
    INDEX 01 01:16:07
  TRACK 55 AUDIO
    TITLE "3:cjc004_5253"
    INDEX 01 01:16:63
  TRACK 56 AUDIO
    TITLE "0:"
    INDEX 01 01:18:17
  TRACK 57 AUDIO
    TITLE "4:cjc004_5254"
    INDEX 01 01:18:43
  TRACK 58 AUDIO
    TITLE "0:"
    INDEX 01 01:20:02
  TRACK 59 AUDIO
    TITLE "5:cjc004_5255"
    INDEX 01 01:20:24
  TRACK 60 AUDIO
    TITLE "0:"
    INDEX 01 01:24:41
